<?xml version="1.0" standalone="no"?>
<!DOCTYPE svg PUBLIC "-//W3C//DTD SVG 20010904//EN"
 "http://www.w3.org/TR/2001/REC-SVG-20010904/DTD/svg10.dtd">
<svg version="1.0" xmlns="http://www.w3.org/2000/svg"
 width="260.000000pt" height="260.000000pt" viewBox="0 0 260.000000 260.000000"
 preserveAspectRatio="xMidYMid meet">
<metadata>
Created by potrace 1.14, written by Peter Selinger 2001-2017
</metadata>
<g transform="translate(0.000000,260.000000) scale(0.100000,-0.100000)"
fill="#000000" stroke="none">
<path d="M1165 2594 c-86 -9 -241 -47 -328 -80 -417 -159 -719 -517 -814 -964
-25 -118 -25 -382 0 -500 55 -256 169 -474 345 -653 186 -190 399 -309 658
-368 143 -32 405 -32 548 0 506 115 886 496 997 1001 34 150 34 390 0 540
-111 505 -496 891 -997 1000 -97 21 -316 34 -409 24z m-244 -389 c-80 -186
-109 -363 -91 -543 9 -85 36 -202 59 -257 5 -11 15 -36 22 -55 22 -59 116
-208 170 -271 80 -93 201 -184 324 -244 61 -29 121 -56 135 -58 14 -3 43 -11
65 -17 121 -35 398 -38 515 -5 46 13 56 13 68 1 12 -11 7 -22 -31 -72 -96
-125 -250 -255 -382 -321 -73 -37 -218 -81 -325 -98 -243 -40 -528 27 -746
176 -67 46 -188 165 -247 241 -110 146 -176 309 -204 503 -12 90 -13 130 -4
220 33 328 194 602 464 786 100 69 228 132 241 119 5 -5 -10 -50 -33 -105z
m925 -227 c10 -18 20 -46 24 -63 5 -29 8 -30 65 -33 103 -5 123 -47 49 -103
-44 -33 -45 -35 -39 -74 3 -22 7 -58 8 -80 2 -34 -1 -40 -20 -43 -13 -2 -42
10 -67 27 -25 17 -50 31 -56 31 -6 0 -31 -13 -55 -30 -49 -34 -67 -37 -85 -15
-10 12 -10 28 1 81 15 73 19 65 -56 117 -29 21 -32 43 -8 69 12 13 31 18 73
18 l57 0 13 43 c15 46 46 87 66 87 8 0 21 -15 30 -32z m-452 -277 c9 -10 27
-47 40 -82 l23 -64 81 -5 c67 -4 86 -9 104 -27 30 -30 15 -60 -57 -113 -31
-23 -58 -47 -61 -53 -2 -7 5 -37 16 -67 28 -77 27 -117 -5 -132 -22 -10 -33
-6 -95 35 -38 26 -75 47 -81 47 -7 0 -35 -17 -63 -39 -66 -50 -87 -56 -117
-33 -25 21 -25 13 11 151 4 18 6 39 4 45 -3 6 -31 30 -64 54 -73 53 -83 77
-46 109 23 20 38 23 106 23 l78 0 21 67 c31 99 66 127 105 84z"/>
<path d="M573 1823 c-13 -2 -32 -16 -43 -30 -60 -76 24 -182 109 -138 98 50
43 190 -66 168z"/>
<path d="M845 963 c-31 -8 -83 -51 -100 -83 -19 -37 -19 -133 -1 -168 8 -15
28 -40 45 -56 25 -24 42 -30 91 -34 74 -5 100 1 140 34 78 66 80 195 5 271
-35 35 -117 51 -180 36z"/>
<path d="M1120 590 c-28 -28 -27 -84 2 -104 30 -22 60 -20 86 4 29 27 28 71
-1 98 -29 27 -61 28 -87 2z"/>
<path d="M1673 569 c-28 -10 -33 -63 -7 -73 39 -15 72 14 59 53 -7 24 -24 31
-52 20z"/>
</g>
</svg>
